# xmcd CD database file
#
# Track frame offsets:
#	150
#	11120
#	24170
#	39223
#	51410
#	61712
#	75760
#	88880
#	99530
#	111643
#	125473
#	139951
#	152676
#	166242
#	178428
#	192184
#	203043
#	213642
#	226164
#	238867
#	250867
#
# Disc length: 3507 seconds
#
# Revision: 1
# Processed by: cddbd v1.5.2PL0 Copyright (c) Steve Scherf et al.
# Submitted via: CDex 1.51
#
DISCID=1d0db115
DTITLE=Various Artist - 101 Northern Soul [Universal Music] CD5
DYEAR=2018
DGENRE=Soul/R&B
TTITLE0=The Spencer Davis Group - Trampoline
TTITLE1=Tommy Good - Baby I Miss You
TTITLE2=Thelma Houston - Nothing Left To Give
TTITLE3=The Supremes - Nothing But Heartaches
TTITLE4=Brenda Holloway - We'll Keep On Rolling
TTITLE5=The Monitors - Crying In The Night
TTITLE6=The Isley Brothers - Sure Is A Lotta Woman
TTITLE7=Shorty Long - Baby Come Home To Me
TTITLE8=Martha Reeves and The Vandellas - Show Me The Way
TTITLE9=Kim Weston - You Can Do It
TTITLE10=Jr. Walker and The All Stars - Tune Up
TTITLE11=Four Tops - Sweet Was The Love
TTITLE12=Etta James - Seven Day Fool
TTITLE13=Earl Van Dyke and The Soul Brothers - I Can't Help Myself (Sugar Pie, Honey Bunch)
TTITLE14=Billy Stewart - Secret Love
TTITLE15=Chris Clark - Do I Love You (Indeed I Do)
TTITLE16=Brenda Holloway - Can't Hold The Feeling Back
TTITLE17=Bobby Taylor - I've Been Blessed
TTITLE18=Frank Wilson - 'Til You Were Gone
TTITLE19=Dusty Springfield - Long After Tonight Is Over 
TTITLE20=The Flirtations - Nothing But A Heartache
EXTD=YEAR: 2018
EXTT0=
EXTT1=
EXTT2=
EXTT3=
EXTT4=
EXTT5=
EXTT6=
EXTT7=
EXTT8=
EXTT9=
EXTT10=
EXTT11=
EXTT12=
EXTT13=
EXTT14=
EXTT15=
EXTT16=
EXTT17=
EXTT18=
EXTT19=
EXTT20=
PLAYORDER=
